<?xml version="1.0" encoding="UTF-8"?>
<svg width="24px" height="16px" viewBox="0 0 24 16" version="1.1" xmlns="http://www.w3.org/2000/svg" xmlns:xlink="http://www.w3.org/1999/xlink">
    <title>0E205C78-140A-4432-BBAE-C84EBDB90D7A</title>
    <g id="Page-1" stroke="none" stroke-width="1" fill="none" fill-rule="evenodd">
        <g id="Desktop-HD-Copy-9" transform="translate(-1393.000000, -749.000000)" fill="#000000" fill-rule="nonzero">
            <g id="view-eye-seen-show-vision" transform="translate(1393.000000, 749.000000)">
                <path d="M23.352,7.144 C20.852,3.265 16.607,0.949 12,0.949 C7.393,0.949 3.149,3.265 0.648,7.144 C0.313,7.665 0.313,8.336 0.648,8.857 C3.149,12.735 7.393,15.051 12,15.051 C16.607,15.051 20.852,12.735 23.352,8.857 C23.688,8.336 23.688,7.664 23.352,7.144 Z M22.344,8.206 C20.065,11.741 16.198,13.851 12,13.851 C7.802,13.851 3.936,11.741 1.657,8.206 C1.577,8.083 1.577,7.917 1.657,7.794 C3.936,4.259 7.802,2.149 12,2.149 C16.198,2.149 20.064,4.259 22.344,7.794 C22.423,7.917 22.423,8.083 22.344,8.206 Z M12,4.4 C10.015,4.4 8.4,6.015 8.4,8 C8.4,9.985 10.015,11.6 12,11.6 C13.985,11.6 15.6,9.985 15.6,8 C15.6,6.015 13.985,4.4 12,4.4 Z M12,10.4 C10.677,10.4 9.6,9.323 9.6,8 C9.6,6.677 10.677,5.6 12,5.6 C13.323,5.6 14.4,6.677 14.4,8 C14.4,9.323 13.323,10.4 12,10.4 Z" id="Shape"></path>
            </g>
        </g>
    </g>
</svg>